<svg width="21" height="21" viewBox="0 0 21 21" fill="none" xmlns="http://www.w3.org/2000/svg">
<path fill-rule="evenodd" clip-rule="evenodd" d="M12.6875 9.625H11.375V5.25H14.875C15.4 5.25 15.75 4.9 15.75 4.375C15.75 3.85 15.4 3.5 14.875 3.5H11.375V0.875C11.375 0.35 11.025 0 10.5 0C9.975 0 9.625 0.35 9.625 0.875V3.5H8.3125C6.125 3.5 4.375 5.25 4.375 7.4375C4.375 9.625 6.125 11.375 8.3125 11.375H9.625V15.75H5.25C4.725 15.75 4.375 16.1 4.375 16.625C4.375 17.15 4.725 17.5 5.25 17.5H9.625V20.125C9.625 20.65 9.975 21 10.5 21C11.025 21 11.375 20.65 11.375 20.125V17.5H12.6875C14.875 17.5 16.625 15.75 16.625 13.5625C16.625 11.375 14.875 9.625 12.6875 9.625ZM8.31257 9.625C7.08757 9.625 6.12507 8.6625 6.12507 7.4375C6.12507 6.2125 7.08757 5.25 8.31257 5.25H9.62507V9.625H8.31257ZM11.3751 15.75H12.6876C13.9126 15.75 14.8751 14.7875 14.8751 13.5625C14.8751 12.3375 13.9126 11.375 12.6876 11.375H11.3751V15.75Z" fill="black"/>
<mask id="mask0" mask-type="alpha" maskUnits="userSpaceOnUse" x="4" y="0" width="13" height="21">
<path fill-rule="evenodd" clip-rule="evenodd" d="M12.6875 9.625H11.375V5.25H14.875C15.4 5.25 15.75 4.9 15.75 4.375C15.75 3.85 15.4 3.5 14.875 3.5H11.375V0.875C11.375 0.35 11.025 0 10.5 0C9.975 0 9.625 0.35 9.625 0.875V3.5H8.3125C6.125 3.5 4.375 5.25 4.375 7.4375C4.375 9.625 6.125 11.375 8.3125 11.375H9.625V15.75H5.25C4.725 15.75 4.375 16.1 4.375 16.625C4.375 17.15 4.725 17.5 5.25 17.5H9.625V20.125C9.625 20.65 9.975 21 10.5 21C11.025 21 11.375 20.65 11.375 20.125V17.5H12.6875C14.875 17.5 16.625 15.75 16.625 13.5625C16.625 11.375 14.875 9.625 12.6875 9.625ZM8.31257 9.625C7.08757 9.625 6.12507 8.6625 6.12507 7.4375C6.12507 6.2125 7.08757 5.25 8.31257 5.25H9.62507V9.625H8.31257ZM11.3751 15.75H12.6876C13.9126 15.75 14.8751 14.7875 14.8751 13.5625C14.8751 12.3375 13.9126 11.375 12.6876 11.375H11.3751V15.75Z" fill="white"/>
</mask>
<g mask="url(#mask0)">
<rect x="-2.21045" y="-2.21045" width="25.4211" height="25.4211" fill="#FFAB36"/>
</g>
</svg>
