<svg width="23" height="20" viewBox="0 0 23 20" fill="none" xmlns="http://www.w3.org/2000/svg">
<path d="M3.48096 13.1234L7.91134 9.06494" stroke="#21B8C7" stroke-width="2" stroke-linecap="round" stroke-linejoin="round"/>
<path d="M8.79721 9.06503C9.28657 9.06503 9.68328 8.70162 9.68328 8.25334C9.68328 7.80506 9.28657 7.44165 8.79721 7.44165C8.30784 7.44165 7.91113 7.80506 7.91113 8.25334C7.91113 8.70162 8.30784 9.06503 8.79721 9.06503Z" stroke="#21B8C7" stroke-width="2" stroke-linecap="round" stroke-linejoin="round"/>
<path d="M13.2279 13.1234C13.7172 13.1234 14.1139 12.76 14.1139 12.3117C14.1139 11.8634 13.7172 11.5 13.2279 11.5C12.7385 11.5 12.3418 11.8634 12.3418 12.3117C12.3418 12.76 12.7385 13.1234 13.2279 13.1234Z" stroke="#21B8C7" stroke-width="2" stroke-linecap="round" stroke-linejoin="round"/>
<path d="M14.114 11.5L19.4304 6.62988M9.68359 9.06495L12.3418 11.5L9.68359 9.06495Z" stroke="#21B8C7" stroke-width="2" stroke-linecap="round" stroke-linejoin="round"/>
</svg>
